<svg width="81" height="87" viewBox="0 0 81 87" fill="none" xmlns="http://www.w3.org/2000/svg">
<path d="M19.3152 68.2868C18.4315 67.9548 17.4463 68.3995 17.1106 69.282L13.4546 78.9485C12.8593 78.2108 12.3189 77.431 11.8383 76.6146C11.3281 75.7548 10.3114 75.3346 9.34322 75.5841C8.25475 75.865 7.14935 76.0754 6.03379 76.214L9.43595 67.2214C9.76979 66.3383 9.32508 65.3512 8.44133 65.0168C7.5582 64.6823 6.57109 65.1276 6.23665 66.0108L1.03424 79.7634L3.48903 79.7829L3.4884 79.7823C5.46312 79.7861 7.43156 79.5574 9.35275 79.1001C10.3524 80.6881 11.5737 82.1262 12.9791 83.3696L14.8322 84.9765L20.3092 70.4913C20.6431 69.6075 20.1984 68.6211 19.3152 68.2866L19.3152 68.2868Z" fill="#7F39D8"/>
<path d="M30.695 64.7359C29.8119 65.0704 29.3665 66.0575 29.701 66.9406L33.973 78.236C32.8555 78.0975 31.7481 77.8865 30.6577 77.6055C29.6883 77.3573 28.6724 77.7806 28.1659 78.643C27.6865 79.4574 27.1479 80.236 26.5546 80.9712L24.5086 75.5615V75.5622C24.3486 75.1376 24.026 74.7937 23.6128 74.6072C23.199 74.4201 22.7284 74.4057 22.3039 74.5657C21.88 74.7263 21.5367 75.0488 21.3502 75.4626C21.1638 75.8759 21.1493 76.347 21.3099 76.771L25.1768 87L27.0299 85.3925C28.4352 84.1497 29.656 82.7116 30.6549 81.1229C32.5774 81.5702 34.5439 81.7994 36.5174 81.8058L38.9722 81.7862L32.8993 65.7307C32.5654 64.847 31.5784 64.4022 30.6946 64.7361L30.695 64.7359Z" fill="#7F39D8"/>
<path d="M1.2692 53.8802C1.63265 54.7974 2.3627 55.5212 3.28231 55.8771C3.9456 56.1353 4.51881 56.5807 4.93388 57.1589C5.34835 57.7372 5.58709 58.4231 5.61921 59.1336C5.66142 60.1257 6.11557 61.0548 6.87271 61.6968C7.62985 62.3393 8.62136 62.636 9.60647 62.515C10.3113 62.4313 11.025 62.5535 11.6625 62.8659C12.2999 63.179 12.8328 63.669 13.1982 64.2775C13.704 65.1323 14.5443 65.7364 15.5156 65.9436C16.4869 66.1515 17.5004 65.9436 18.3117 65.3704C18.8125 65.017 19.3939 64.7953 20.003 64.7266C20.6096 64.7953 21.1891 65.0151 21.6879 65.3666C22.5043 65.9423 23.5235 66.1515 24.5004 65.943C25.4692 65.7345 26.3056 65.1298 26.8082 64.2762C27.0967 63.7849 27.4999 63.3704 27.9824 63.0681C28.6967 62.6051 29.5508 62.4086 30.3956 62.5144C31.382 62.636 32.3735 62.3399 33.1319 61.6974C33.8897 61.0549 34.3444 60.1252 34.3866 59.1325C34.415 58.4213 34.6518 57.7335 35.067 57.1545C35.4821 56.5763 36.0572 56.1322 36.7224 55.8771C37.6465 55.5155 38.3785 54.7848 38.7413 53.8608C39.1041 52.9373 39.0657 51.9042 38.6342 51.0098C38.3841 50.5008 38.2575 49.9402 38.2645 49.3734C38.2796 48.5167 38.592 47.6921 39.1489 47.0408C39.7939 46.2874 40.0943 45.2991 39.9784 44.314C39.8625 43.3294 39.3403 42.4375 38.5385 41.8548C37.9615 41.4378 37.5193 40.8615 37.2654 40.1963C37.0122 39.5312 36.9593 38.8061 37.1124 38.1113C37.324 37.1413 37.1212 36.1259 36.5518 35.3121C35.9823 34.4982 35.0986 33.9597 34.1141 33.8255C33.4098 33.7304 32.7491 33.4318 32.2117 32.9669C31.6751 32.5014 31.2852 31.8898 31.0905 31.2064C30.8209 30.2514 30.1646 29.4534 29.2801 29.0043C28.3951 28.5558 27.3633 28.4972 26.4343 28.8436C25.8995 29.0427 25.3269 29.1158 24.76 29.0565C23.9052 28.9627 23.1108 28.5715 22.5163 27.9511C21.8574 27.2651 20.9465 26.8783 19.9954 26.8802C19.0442 26.8821 18.1353 27.2727 17.479 27.9611C16.8888 28.5747 16.102 28.9614 15.2554 29.0553C14.6885 29.1164 14.1153 29.0452 13.5798 28.8474C12.6514 28.4978 11.6183 28.5539 10.7321 29.0005C9.84643 29.4471 9.18756 30.2445 8.91538 31.1989C8.72263 31.8848 8.33272 32.499 7.79479 32.9664C7.25623 33.4331 6.59294 33.7323 5.88682 33.8262C4.90353 33.961 4.0211 34.5002 3.45219 35.314C2.8834 36.1279 2.68055 37.1414 2.8922 38.1115C3.04527 38.8063 2.99236 39.53 2.73977 40.1952C2.48718 40.8598 2.04561 41.4361 1.46925 41.8531C0.665495 42.4357 0.142045 43.327 0.0248935 44.3122C-0.0922679 45.298 0.207563 46.287 0.851954 47.0416C1.31682 47.5815 1.61351 48.246 1.70548 48.9522C1.79681 49.6589 1.67965 50.377 1.36784 51.0177C0.936984 51.9166 0.901717 52.954 1.26895 53.8806L1.2692 53.8802ZM3.47646 44.6232C4.37218 43.977 5.10288 43.1285 5.60744 42.1459C6.36521 40.6782 6.58631 38.9914 6.23293 37.3782C6.21592 37.3052 6.24238 37.2478 6.34002 37.217C7.43542 37.0689 8.48164 36.6677 9.39564 36.0447C9.62618 35.8872 9.84665 35.7159 10.0564 35.532C10.8986 34.7937 11.5543 33.8672 11.9707 32.8277C12.0343 32.669 12.0935 32.5084 12.1451 32.3452C12.1703 32.264 12.1873 32.1789 12.2151 32.0989C12.2617 31.966 12.474 32.0845 12.5521 32.1115C12.7102 32.1657 12.8695 32.2142 13.0308 32.2577C13.672 32.4296 14.3347 32.5103 14.9986 32.4958C15.2071 32.4914 15.4149 32.4788 15.6222 32.4555C17.2939 32.2545 18.8523 31.5062 20.0541 30.3264C21.0097 31.321 22.2354 32.0146 23.5809 32.3207C24.9258 32.6274 26.3311 32.5336 27.6236 32.0504C27.7552 31.9988 27.7949 32.0952 27.7974 32.1311L27.7968 32.1317C28.1533 33.3864 28.8494 34.5184 29.8081 35.4034C30.7668 36.2878 31.9517 36.8906 33.2311 37.1451C33.3086 37.1602 33.3861 37.1747 33.4642 37.1873C33.5719 37.2049 33.8125 37.198 33.7734 37.3706C33.4761 38.7161 33.5782 40.1202 34.0676 41.4083C34.5577 42.6971 35.4131 43.8145 36.5287 44.6234L36.5526 44.8136H36.5533C35.4767 46.0728 34.872 47.6677 34.8443 49.3237C34.8285 50.4273 35.0736 51.5183 35.5586 52.5092C35.5806 52.5759 35.5535 52.649 35.4937 52.6849C33.946 53.2839 32.6572 54.4045 31.8497 55.8539C31.3949 56.6709 31.1083 57.5709 31.0056 58.5007C30.9873 58.667 30.9565 59.1155 30.9565 59.1155C30.9565 59.1155 30.6069 59.096 30.501 59.0878V59.0884C28.9647 58.9694 27.4309 59.3562 26.1352 60.1895C25.1973 60.7822 24.4156 61.5917 23.8556 62.5498L23.8052 62.6443L23.6628 62.5725C22.6216 61.8399 21.402 61.4015 20.1328 61.3032L20.003 61.2938L19.8733 61.3032H19.8739C18.6034 61.4008 17.3833 61.8393 16.3421 62.5725C16.3137 62.5996 16.2747 62.6115 16.2356 62.6052C16.1972 62.5989 16.1632 62.5756 16.1443 62.541C15.5849 61.5905 14.8083 60.786 13.8772 60.1939C12.487 59.2994 10.8279 58.9196 9.18695 59.1199C9.1038 59.1237 9.04711 59.0928 9.03703 59.0002H9.03766C8.99546 57.8947 8.69059 56.8151 8.14887 55.8501C8.01407 55.6082 7.86542 55.3739 7.70416 55.1484C7.05411 54.2464 6.20059 53.51 5.21293 52.9998C5.07687 52.9299 4.93767 52.8669 4.7972 52.8065C4.72602 52.7762 4.65485 52.746 4.58367 52.7164C4.52824 52.6931 4.43753 52.6754 4.41738 52.6106C4.40982 52.5778 4.41801 52.5432 4.4388 52.5167C4.4577 52.4858 4.4747 52.4531 4.48919 52.4197C4.52321 52.3473 4.55596 52.2742 4.58746 52.2005C4.65045 52.0537 4.7084 51.9057 4.76131 51.7552C4.8665 51.4553 4.95091 51.1486 5.0139 50.8374C5.07815 50.5237 5.12035 50.2062 5.14113 49.8875C5.15373 49.6979 5.15877 49.5077 5.15625 49.3174C5.12917 47.6602 4.52257 46.0646 3.44163 44.8079C3.42084 44.779 3.41265 44.7431 3.41895 44.7078C3.42588 44.6731 3.44667 44.6423 3.47628 44.6234L3.47646 44.6232Z" fill="#7F39D8"/>
<path d="M66.2065 36.4034H43.397C42.4522 36.4034 41.6863 37.1694 41.6863 38.1135C41.6863 39.0584 42.4522 39.8243 43.397 39.8243H66.2065C67.1508 39.8243 67.9167 39.0583 67.9167 38.1135C67.9167 37.1693 67.1507 36.4034 66.2065 36.4034Z" fill="#7F39D8"/>
<path d="M66.2066 50.4681H45.2177C44.2728 50.4681 43.5076 51.2341 43.5076 52.1782C43.5076 53.1231 44.2729 53.8883 45.2177 53.8883H66.2066C67.1508 53.8883 67.9167 53.123 67.9167 52.1782C67.9167 51.234 67.1508 50.4681 66.2066 50.4681Z" fill="#7F39D8"/>
<path d="M79.5956 19.1427C79.5049 18.7749 79.2914 18.4492 78.9903 18.2186C78.8781 18.0731 78.783 17.9213 78.6552 17.784L64.4023 2.14985C63.1557 0.779187 61.3888 -0.00193147 59.5363 3.58676e-06H27.0402C24.7184 0.00252303 22.4923 0.925962 20.8507 2.5675C19.2092 4.20908 18.2858 6.4344 18.2826 8.75631V21.7543C18.2826 22.6991 19.0486 23.4644 19.9933 23.4644C20.9376 23.4644 21.7035 22.699 21.7035 21.7543V8.75631C21.7047 7.34155 22.2678 5.9853 23.2681 4.98504C24.269 3.98476 25.6252 3.42225 27.04 3.42037H59.5361C60.4243 3.41848 61.2722 3.79264 61.87 4.44962L74.0813 17.8438L67.7748 17.8444C66.362 17.8425 65.007 17.2807 64.0074 16.281C63.0084 15.282 62.4465 13.927 62.4453 12.5136V9.11209C62.4453 8.16786 61.6793 7.40198 60.7345 7.40198C59.7903 7.40198 59.0244 8.16794 59.0244 9.11209V12.5136C59.0269 14.8336 59.9497 17.0578 61.59 18.6985C63.2309 20.3388 65.4551 21.2622 67.7749 21.2647H76.7989C76.899 21.5734 76.9507 21.8953 76.9532 22.2203V63.7177C76.9513 65.1255 76.3913 66.4748 75.3967 67.4701C74.4015 68.4653 73.0516 69.0247 71.6443 69.0265H40.2722C39.328 69.0265 38.5621 69.7919 38.5621 70.7367C38.5621 71.6809 39.328 72.4468 40.2722 72.4468H71.6443C73.9587 72.4442 76.1777 71.5233 77.8136 69.8875C79.45 68.2511 80.371 66.0319 80.3736 63.7175V22.2202C80.3704 21.1462 80.1033 20.0892 79.5956 19.1425L79.5956 19.1427Z" fill="#7F39D8"/>
</svg>
