<svg width="257" height="303" viewBox="0 0 257 303" fill="none" xmlns="http://www.w3.org/2000/svg">
<path d="M123.76 73.8C123.76 74.8 122.76 74.8 122.76 74.8H121.76C120.76 74.8 120.76 73.8 119.76 72.8C119.76 72.8 118.76 71.8 118.76 70.8C118.76 69.8 118.76 69.8 119.76 69.8L121.76 70.8C122.76 71.8 123.76 72.8 123.76 73.8ZM105.76 63.8C105.76 58.8 103.76 55.8 100.76 55.8C100.76 55.8 100.76 56.8 99.76 56.8V58.8H102.76C102.76 60.8 103.76 61.8 103.76 63.8H105.76ZM140.76 58.8C142.76 58.8 143.76 60.8 144.76 63.8H146.76C145.76 62.8 145.76 61.8 145.76 60.8C145.76 59.8 145.76 58.8 144.76 57.8C143.76 56.8 142.76 55.8 141.76 55.8C141.76 55.8 140.76 56.8 139.76 56.8C139.76 57.8 140.76 57.8 140.76 58.8ZM110.76 74.8C109.76 74.8 109.76 74.8 109.76 73.8C109.76 72.8 109.76 71.8 110.76 70.8C112.76 70.8 113.76 69.8 113.76 69.8C114.76 69.8 114.76 70.8 114.76 70.8C114.76 71.8 113.76 72.8 111.76 74.8H110.76ZM99.76 73.8C95.76 71.8 94.76 68.8 94.76 63.8C94.76 60.8 94.76 58.8 96.76 56.8C97.76 54.8 99.76 53.8 101.76 53.8C103.76 53.8 104.76 54.8 106.76 56.8C107.76 59.8 108.76 62.8 108.76 65.8V67.8H109.76V66.8C110.76 66.8 110.76 64.8 110.76 60.8C110.76 57.8 110.76 54.8 108.76 51.8C106.76 48.8 104.76 46.8 100.76 46.8C97.76 46.8 94.76 48.8 93.76 51.8C91.76 55.8 91.36 58.8 91.36 63.8C91.36 67.8 92.76 71.8 96.76 75.8C97.76 74.8 98.76 74.8 99.76 73.8ZM224.76 214.8C225.76 214.8 225.76 214.4 225.76 213.5C225.76 211.3 224.76 208.7 221.76 205.8C218.76 202.8 213.76 200.9 207.76 200.1C206.76 200 205.76 200 205.76 200C204.76 199.8 204.76 199.8 203.76 199.8C202.76 199.7 200.76 199.5 199.76 199.3C202.76 190 203.76 181.8 203.76 174.6C203.76 164.6 201.76 157.6 197.76 151.6C193.76 145.6 189.76 142.6 184.76 141.6C183.76 142.6 183.76 142.6 183.76 143.6C188.76 145.6 193.76 149.6 196.76 155.6C199.76 162.6 200.76 168.6 200.76 175.6C200.76 181.2 199.76 189.5 195.76 200.1C191.76 201.7 187.76 205.4 184.76 211.2C184.76 212.1 184.76 212.6 185.76 212.6C185.76 212.6 186.76 211.7 187.76 210C189.76 208.3 190.76 206.6 192.76 204.9C195.76 203.2 197.76 202.3 200.76 202.3C205.76 202.3 210.76 203 213.76 204.4C217.76 205.7 219.76 207.1 220.76 208.7C221.76 210.2 222.76 211.6 223.76 212.9C223.76 214.2 224.76 214.8 224.76 214.8M132.76 69.8C131.76 68.8 131.76 66.8 131.76 64.8C131.76 60.8 131.76 58.8 133.76 55.8C135.76 53.8 137.76 52.8 139.76 52.8C142.76 52.8 144.76 54.8 146.76 56.8C147.76 59.8 148.76 61.8 148.76 64.8C148.76 69.8 146.76 72.8 142.76 73.8C142.76 73.8 143.76 74.8 144.76 74.8C146.76 74.8 147.76 75.8 149.76 76.8C150.76 70.8 151.76 66.8 151.76 61.8C151.76 55.8 150.76 51.8 148.76 48.8C145.76 45.8 142.76 44.8 138.76 44.8C135.76 44.8 132.76 45.8 129.76 47.8C127.76 50.8 126.76 52.8 126.76 55.8C126.76 60.8 127.76 64.8 129.76 68.8C130.76 68.8 131.76 69.8 132.76 69.8ZM144.76 85.8C131.76 94.8 121.76 98.8 113.76 98.8C106.76 98.8 99.76 95.8 93.76 90.8C94.76 92.8 95.76 94.8 96.76 95.8L102.76 101.8C106.76 105.8 111.76 107.8 116.76 107.8C123.76 107.8 131.76 103.8 141.76 96.8L150.76 90.8C152.76 88.8 154.76 86.8 154.76 83.8C154.76 82.8 154.76 81.8 153.76 81.8C152.76 79.8 147.76 76.8 137.76 73.8C128.76 69.8 121.76 67.8 117.76 67.8C114.76 67.8 109.76 69.8 102.76 73.8C96.76 77.8 92.76 81.8 92.76 85.8C92.76 85.8 93.76 86.8 94.76 88.8C100.76 93.8 106.76 96.8 112.76 96.8C120.76 96.8 130.76 92.8 143.76 82.8V84.8C144.76 84.8 144.76 85.8 144.76 85.8ZM167.76 287.8C171.76 295.32 178.76 299.1 186.76 299.1C188.76 299.1 190.76 298.8 192.76 298.2C194.76 297.8 196.76 297.1 197.76 296.3C198.76 295.6 199.76 294.9 200.76 294.1C202.76 293.4 202.76 292.9 203.76 292.4L220.76 277.7C224.76 274.51 228.76 271.72 233.76 269.3C237.76 266.9 241.76 265.3 243.76 264.4C246.76 263.6 248.76 262.4 250.76 260.8C251.76 259.3 252.76 257.4 252.76 255C252.76 252.1 250.76 249.9 248.76 248.3C246.76 246.7 244.76 245.6 242.76 244.9C240.76 244.2 238.76 242.6 235.76 239.9C233.76 237.3 231.76 233.7 230.76 229L229.76 223.2C228.76 220.5 228.76 218.5 227.76 217.4C227.76 217.1 227.76 217 226.76 217C225.76 217 223.76 217.9 222.76 219.6C220.76 221.3 218.76 223.2 216.76 225.2C215.76 227.2 212.76 229 210.76 230.7C207.76 232.4 204.76 233.3 202.76 233.3C194.76 233.3 190.76 231.1 187.76 226.8C185.76 223.6 184.76 219.9 183.76 215.7C181.76 214 180.76 213.1 178.76 213.1C173.76 213.1 171.76 218.3 171.76 228.8V259.9C171.76 260.8 170.76 262.8 170.76 265.9C169.76 269 169.76 272.52 169.76 276.5L167.76 287.6V287.77M22.76 282.48C32.06 283.84 42.76 286.75 54.86 291.19C66.96 295.59 74.36 297.89 77.06 297.89C84.06 297.89 89.86 294.79 94.66 288.8C95.66 286.86 95.66 284.58 95.66 281.96C95.66 272.51 89.96 260.56 78.56 246.06L71.76 236.96C70.36 235.06 68.66 232.16 66.46 228.26C64.36 224.36 62.46 221.36 60.96 219.26C59.66 216.96 57.56 214.66 54.86 212.36C52.26 210.06 49.26 208.56 45.96 207.76C41.76 208.56 38.86 209.96 37.46 211.86C36.06 213.76 35.26 215.86 35.06 218.06C34.76 220.16 34.16 221.56 33.16 222.26C32.16 222.86 30.46 223.36 28.16 223.86C27.66 223.86 26.76 223.86 25.46 223.96H22.76C17.46 223.96 13.86 224.56 11.96 225.56C9.46 228.46 8.16 231.76 8.16 235.26C8.16 236.86 8.56 239.56 9.36 243.36C10.16 247.06 10.56 250.06 10.56 252.16C10.56 256.26 9.36 260.36 6.86 264.46C4.36 268.76 3.06 271.96 3.06 274.24C4.06 278.12 10.66 280.85 22.76 282.45M56.06 191.55C56.06 184.65 57.86 177.05 61.56 168.05C65.16 159.05 68.76 153.05 72.26 149.05C72.06 148.05 71.56 148.05 70.76 148.05L69.76 147.05C66.86 150.05 63.36 157.05 59.16 167.05C54.96 176.05 52.76 184.35 52.76 190.45C52.76 194.95 53.86 198.85 55.86 202.25C58.06 205.55 63.36 210.35 71.76 216.45L82.36 223.35C93.66 233.15 99.66 239.95 99.66 243.95C99.66 246.05 98.66 248.15 95.66 250.45C93.66 252.85 90.96 254.05 88.66 254.05C88.46 254.05 88.36 254.25 88.36 254.75C88.36 254.85 89.36 256.85 91.46 260.75C95.66 266.45 104.66 269.25 116.66 269.25C138.66 269.25 155.66 260.25 168.66 242.25C168.66 237.25 168.66 234.15 167.66 232.85V229.15C167.66 222.65 168.66 217.75 170.66 214.55C172.66 211.35 174.66 209.85 177.66 209.85C179.66 209.85 181.66 210.55 183.66 212.05C184.66 204.35 184.66 197.65 184.66 191.65C184.66 182.55 184.66 175.05 182.66 168.05C181.66 162.05 179.66 157.05 177.66 153.05L171.66 144.05C169.66 141.05 168.66 138.05 166.66 135.05C165.66 131.05 164.66 128.05 164.66 123.05C161.66 118.05 159.66 113.05 156.66 108.05C154.66 103.05 152.66 98.05 150.66 94.05L141.66 101.05C131.66 108.05 123.66 111.05 116.66 111.05C110.66 111.05 105.66 110.05 102.66 106.05L96.66 101.05C96.66 104.05 95.66 108.05 93.66 112.05L87.36 124.05C84.56 131.05 83.06 135.05 82.76 138.05C82.36 140.05 82.06 142.05 81.86 142.05L74.36 157.05C66.26 172.05 62.16 185.95 62.16 197.45C62.16 199.75 62.36 202.15 62.76 204.55C58.26 201.45 56.06 197.15 56.06 191.55M127.66 286.15C114.66 286.15 104.66 287.91 97.66 291.4V291.1C92.66 297.1 87.06 300.2 79.26 300.2C74.36 300.2 66.66 298.3 56.26 294.5C45.76 290.9 36.46 288.14 28.36 286.32C27.56 286.09 25.76 285.75 22.86 285.29C20.06 284.84 17.46 284.38 15.16 283.92C13.06 283.47 10.66 282.79 8.06 281.87C5.56 281.08 3.56 280.05 2.06 278.8C0.68 277.54 0 276.12 0 274.53C0 272.93 0.34 271.22 1.02 269.4C1.66 268.3 2.36 267.2 3.06 266.2C3.76 265.1 4.36 264.1 4.76 263.1C5.36 262.2 5.76 261.3 6.16 260.3C6.56 259.4 6.96 258.5 7.16 257.4C7.36 256.4 7.56 255.4 7.56 254.4C7.56 253.4 7.16 250.4 6.36 245.1C5.56 239.9 5.16 236.6 5.16 235.2C5.16 230.8 6.16 227.3 8.36 224.8C10.56 222.3 12.66 221 14.86 221H26.36C27.26 221 28.66 220.5 30.76 219.3C31.46 217.7 32.06 216.4 32.46 215.2C32.96 214 33.16 213.1 33.36 212.7C33.56 212.1 33.76 211.5 33.96 211C34.36 210.3 34.86 209.5 35.56 208.7C34.76 207.7 34.36 206.4 34.36 204.8C34.36 203.7 34.36 202.7 34.56 202.1C34.56 198.5 36.26 193.4 39.86 186.7L43.36 180.4C46.26 175 48.46 171 50.06 167C51.76 163 53.56 157 55.56 149C57.16 142 60.96 135 66.96 128L74.46 119C79.66 113 83.06 108 84.96 104C86.86 100 87.86 95 87.86 91C87.86 89 87.36 83 86.26 73C85.26 63 84.76 53 84.76 44C84.76 37 85.36 32 86.66 27C87.96 22 90.26 17 93.66 13C96.66 9 100.66 5 106.66 3C112.66 1 119.66 0 127.66 0C130.66 0 133.66 0 136.66 1C139.66 1 143.66 2 148.66 4C152.66 6 156.66 8 159.66 11C163.66 14 166.66 19 169.66 24C171.66 30 173.66 36 174.66 44C175.66 49 175.66 54 176.66 61C176.66 67 177.66 71 177.66 74C178.66 77 178.66 81 179.66 86C180.66 90 181.66 94 183.66 97C185.66 101 187.66 105 190.66 109C193.66 114 197.66 119 201.66 125C210.66 135 217.66 146 221.66 157C226.66 167 229.66 180 229.66 193.9C229.66 200.8 228.66 207.5 226.66 214C228.66 214 229.66 214.8 230.66 216.2C231.66 217.6 232.66 220.6 233.66 225.3L234.66 232.7C235.66 234.9 236.66 237 239.66 238.8C241.66 240.6 243.66 242.1 246.66 243.3C248.66 244.3 251.66 245.7 253.66 247.5C255.66 249.5 256.66 251.6 256.66 253.8C256.66 257.2 255.66 259.7 253.66 261.5C251.66 263.5 249.66 264.9 246.66 265.8C244.66 266.8 240.66 268.8 234.66 271.62C229.66 274.58 224.66 278.17 219.66 282.42L209.66 290.93C205.66 294.83 201.66 297.63 198.66 299.33C195.66 301.13 191.66 302.03 187.66 302.03L180.66 301.23C172.66 299.13 167.66 295.13 164.66 289.03C148.66 287.09 135.66 286.13 127.66 286.13" fill="#BFBFBF"/>
</svg>
