<svg width="167" height="167" viewBox="0 0 167 167" fill="none" xmlns="http://www.w3.org/2000/svg">
<path d="M75.3822 164.099H90.7232L96.493 149.034C96.6982 148.494 97.1598 148.098 97.7228 147.969C105.186 146.271 112.192 143.354 118.541 139.297C119.029 138.981 119.646 138.937 120.177 139.176L134.929 145.799L145.768 134.924L139.184 120.203C138.945 119.673 138.992 119.064 139.301 118.576C143.364 112.176 146.28 105.151 147.975 97.7015C148.102 97.136 148.504 96.6742 149.042 96.469L164.101 90.7417V75.363L149.043 69.6319C148.504 69.4267 148.099 68.9612 147.976 68.3994C146.282 60.9102 143.365 53.8891 139.306 47.5324C138.993 47.0406 138.946 46.4275 139.185 45.8982L145.769 31.1791L134.93 20.304L120.178 26.9273C119.647 27.1625 119.03 27.1225 118.542 26.8059C112.193 22.7492 105.187 19.8322 97.7238 18.1344C97.1609 18.0068 96.7005 17.6089 96.4941 17.0695L90.7243 2H75.3832L69.6134 17.0695C69.4082 17.6089 68.9466 18.0055 68.3874 18.1344C60.9202 19.8324 53.9145 22.7492 47.5619 26.8097C47.0702 27.1163 46.4535 27.1639 45.9255 26.9274L31.176 20.3041L20.3371 31.1792L26.9213 45.8983C27.1603 46.4275 27.1127 47.0407 26.8 47.5325C22.7416 53.8892 19.8244 60.9103 18.1305 68.3995C18.0054 68.9625 17.6014 69.4268 17.0634 69.632L2 75.3618V90.7405L17.0621 96.4678C17.6013 96.673 18.0017 97.1347 18.1292 97.7003C19.8231 105.149 22.7403 112.173 26.8025 118.575C27.1128 119.063 27.1591 119.673 26.9201 120.201L20.3359 134.923L31.1748 145.798L45.9244 139.175C46.4535 138.936 47.069 138.98 47.5607 139.292C53.9134 143.352 60.919 146.27 68.3862 147.968C68.9454 148.095 69.4071 148.493 69.6122 149.033L75.3822 164.099Z" fill="#2D2062"/>
<path d="M75.3822 164.099H90.7232L96.493 149.034C96.6982 148.494 97.1598 148.098 97.7228 147.969C105.186 146.271 112.192 143.354 118.541 139.297C119.029 138.981 119.646 138.937 120.177 139.176L134.929 145.799L145.768 134.924L139.184 120.203C138.945 119.673 138.992 119.064 139.301 118.576C143.364 112.176 146.28 105.151 147.975 97.7015C148.102 97.136 148.504 96.6742 149.042 96.469L164.101 90.7417V75.363L149.043 69.6319C148.504 69.4267 148.099 68.9612 147.976 68.3994C146.282 60.9102 143.365 53.8891 139.306 47.5324C138.993 47.0406 138.946 46.4275 139.185 45.8982L145.769 31.1791L134.93 20.304L120.178 26.9273C119.647 27.1625 119.03 27.1225 118.542 26.8059C112.193 22.7492 105.187 19.8322 97.7238 18.1344C97.1609 18.0068 96.7005 17.6089 96.4941 17.0695L90.7243 2H75.3832L69.6134 17.0695C69.4082 17.6089 68.9466 18.0055 68.3874 18.1344C60.9202 19.8324 53.9145 22.7492 47.5619 26.8097C47.0702 27.1163 46.4535 27.1639 45.9255 26.9274L31.176 20.3041L20.3371 31.1792L26.9213 45.8983C27.1603 46.4275 27.1127 47.0407 26.8 47.5325C22.7416 53.8892 19.8244 60.9103 18.1305 68.3995C18.0054 68.9625 17.6014 69.4268 17.0634 69.632L2 75.3618V90.7405L17.0621 96.4678C17.6013 96.673 18.0017 97.1347 18.1292 97.7003C19.8231 105.149 22.7403 112.173 26.8025 118.575C27.1128 119.063 27.1591 119.673 26.9201 120.201L20.3359 134.923L31.1748 145.798L45.9244 139.175C46.4535 138.936 47.069 138.98 47.5607 139.292C53.9134 143.352 60.919 146.27 68.3862 147.968C68.9454 148.095 69.4071 148.493 69.6122 149.033L75.3822 164.099Z" fill="#2D2062"/>
<path d="M75.3822 164.099H90.7232L96.493 149.034C96.6982 148.494 97.1598 148.098 97.7228 147.969C105.186 146.271 112.192 143.354 118.541 139.297C119.029 138.981 119.646 138.937 120.177 139.176L134.929 145.799L145.768 134.924L139.184 120.203C138.945 119.673 138.992 119.064 139.301 118.576C143.364 112.176 146.28 105.151 147.975 97.7015C148.102 97.136 148.504 96.6742 149.042 96.469L164.101 90.7417V75.363L149.043 69.6319C148.504 69.4267 148.099 68.9612 147.976 68.3994C146.282 60.9102 143.365 53.8891 139.306 47.5324C138.993 47.0406 138.946 46.4275 139.185 45.8982L145.769 31.1791L134.93 20.304L120.178 26.9273C119.647 27.1625 119.03 27.1225 118.542 26.8059C112.193 22.7492 105.187 19.8322 97.7238 18.1344C97.1609 18.0068 96.7005 17.6089 96.4941 17.0695L90.7243 2H75.3832L69.6134 17.0695C69.4082 17.6089 68.9466 18.0055 68.3874 18.1344C60.9202 19.8324 53.9145 22.7492 47.5619 26.8097C47.0702 27.1163 46.4535 27.1639 45.9255 26.9274L31.176 20.3041L20.3371 31.1792L26.9213 45.8983C27.1603 46.4275 27.1127 47.0407 26.8 47.5325C22.7416 53.8892 19.8244 60.9103 18.1305 68.3995C18.0054 68.9625 17.6014 69.4268 17.0634 69.632L2 75.3618V90.7405L17.0621 96.4678C17.6013 96.673 18.0017 97.1347 18.1292 97.7003C19.8231 105.149 22.7403 112.173 26.8025 118.575C27.1128 119.063 27.1591 119.673 26.9201 120.201L20.3359 134.923L31.1748 145.798L45.9244 139.175C46.4535 138.936 47.069 138.98 47.5607 139.292C53.9134 143.352 60.919 146.27 68.3862 147.968C68.9454 148.095 69.4071 148.493 69.6122 149.033L75.3822 164.099Z" stroke="white" stroke-width="4"/>
<circle cx="83" cy="84" r="47" fill="#BBD02D"/>
<path d="M57 84C60.9261 94.512 71.0857 102 83 102C94.9143 102 105.074 94.512 109 84" stroke="#2D2062" stroke-width="9" stroke-linecap="round"/>
</svg>
