<svg width="42" height="42" viewBox="0 0 42 42" fill="none" xmlns="http://www.w3.org/2000/svg">
<g id="logo 1">
<path id="Vector" d="M18.7355 40.1784L18.8585 40.4995H19.2024H22.7986H23.1426L23.2656 40.1784L24.5999 36.6945C26.3692 36.2862 28.0334 35.5937 29.5456 34.6343L32.9567 36.1658L33.2718 36.3072L33.5156 36.0626L36.0565 33.5132L36.2991 33.2698L36.1588 32.9561L34.6363 29.552C35.5963 28.0288 36.2885 26.3607 36.696 24.5945L40.1777 23.2703L40.5 23.1478V22.803V19.1979V18.8532L40.1779 18.7306L36.6963 17.4055C36.289 15.6301 35.5964 13.9622 34.6365 12.448L36.159 9.04438L36.2993 8.73066L36.0567 8.48725L33.5158 5.93789L33.272 5.69325L32.9569 5.83472L29.5459 7.36616C28.0337 6.4069 26.3695 5.7143 24.6001 5.30604L23.2659 1.82122L23.1429 1.5H22.7989H19.2026H18.8587L18.7357 1.82122L17.4013 5.30626C15.6317 5.71452 13.9681 6.40684 12.4555 7.36656L9.04431 5.83476L8.7292 5.69325L8.48535 5.93792L5.94447 8.48728L5.70187 8.73069L5.8422 9.04441L7.36471 12.448C6.40496 13.9622 5.71232 15.6301 5.30498 17.4055L1.82224 18.7303L1.5 18.8528V19.1976V22.8027V23.1475L1.82229 23.2701L5.30474 24.5942C5.71207 26.3604 6.40455 28.0283 7.36435 29.5518L5.8419 32.9559L5.7016 33.2696L5.94419 33.513L8.48507 36.0623L8.72891 36.307L9.04402 36.1655L12.4554 34.6337C13.9679 35.5932 15.6314 36.2858 17.401 36.6941L18.7355 40.1784ZM29.498 34.613L29.4985 34.6132L29.498 34.613Z" fill="#2D2062" stroke="white"/>
<circle id="Ellipse 16" cx="21" cy="21" r="11" fill="#BBD02D"/>
<path id="mouth" d="M15 24C15.9404 26.5178 18.3738 28.3114 21.2275 28.3114C24.0813 28.3114 26.5147 26.5178 27.4551 24" stroke="#2D2062" stroke-width="2" stroke-linecap="round"/>
<circle id="left" cx="17" cy="18" r="2" fill="#2D2062"/>
<circle id="right" cx="26" cy="18" r="2" fill="#2D2062"/>
</g>
</svg>
