<svg width="64" height="64" viewBox="0 0 64 64" fill="none" xmlns="http://www.w3.org/2000/svg">
<path d="M28.9724 63.9993H35.0292L37.3073 58.0511C37.3883 57.8382 37.5705 57.6816 37.7928 57.6307C40.7395 56.9603 43.5055 55.8087 46.0121 54.2071C46.2047 54.0821 46.4482 54.0648 46.6581 54.1591L52.4824 56.7741L56.7617 52.4805L54.1622 46.6681C54.0678 46.4592 54.0866 46.2186 54.2086 46.0259C55.8124 43.499 56.9637 40.7254 57.6329 37.7844C57.6833 37.5611 57.8419 37.3788 58.0543 37.2978L64 35.0365V28.9648L58.0546 26.7021C57.8418 26.6211 57.6822 26.4373 57.6333 26.2155C56.9646 23.2586 55.8128 20.4866 54.2105 17.9769C54.087 17.7827 54.0683 17.5406 54.1626 17.3316L56.7621 11.5203L52.4828 7.22669L46.6586 9.84165C46.4486 9.93453 46.2051 9.91872 46.0125 9.79373C43.5059 8.19207 40.7399 7.04041 37.7932 6.3701C37.5709 6.31971 37.3892 6.16261 37.3077 5.94968L35.0297 0H28.9728L26.6948 5.94968C26.6138 6.16261 26.4315 6.31922 26.2107 6.3701C23.2626 7.04051 20.4966 8.19207 17.9885 9.79525C17.7944 9.91629 17.5509 9.93506 17.3425 9.84169L11.5191 7.22673L7.23976 11.5204L9.8393 17.3317C9.93364 17.5407 9.91487 17.7827 9.79139 17.9769C8.1891 20.4866 7.03733 23.2587 6.36857 26.2155C6.31918 26.4378 6.15965 26.6211 5.94726 26.7021L0 28.9643V35.0361L5.94676 37.2973C6.15964 37.3783 6.31769 37.5606 6.36807 37.7839C7.03684 40.7249 8.1886 43.498 9.7924 46.0254C9.9149 46.2181 9.93317 46.4592 9.83883 46.6677L7.23929 52.48L11.5186 56.7736L17.342 54.1587C17.5509 54.0643 17.7939 54.0816 17.988 54.2051C20.4962 55.8078 23.2621 56.9598 26.2103 57.6303C26.431 57.6806 26.6133 57.8377 26.6943 58.0507L28.9724 63.9993Z" fill="#2D2062"/>
<path d="M28.9724 63.9993H35.0292L37.3073 58.0511C37.3883 57.8382 37.5705 57.6816 37.7928 57.6307C40.7395 56.9603 43.5055 55.8087 46.0121 54.2071C46.2047 54.0821 46.4482 54.0648 46.6581 54.1591L52.4824 56.7741L56.7617 52.4805L54.1622 46.6681C54.0678 46.4592 54.0866 46.2186 54.2086 46.0259C55.8124 43.499 56.9637 40.7254 57.6329 37.7844C57.6833 37.5611 57.8419 37.3788 58.0543 37.2978L64 35.0365V28.9648L58.0546 26.7021C57.8418 26.6211 57.6822 26.4373 57.6333 26.2155C56.9646 23.2586 55.8128 20.4866 54.2105 17.9769C54.087 17.7827 54.0683 17.5406 54.1626 17.3316L56.7621 11.5203L52.4828 7.22669L46.6586 9.84165C46.4486 9.93453 46.2051 9.91872 46.0125 9.79373C43.5059 8.19207 40.7399 7.04041 37.7932 6.3701C37.5709 6.31971 37.3892 6.16261 37.3077 5.94968L35.0297 0H28.9728L26.6948 5.94968C26.6138 6.16261 26.4315 6.31922 26.2107 6.3701C23.2626 7.04051 20.4966 8.19207 17.9885 9.79525C17.7944 9.91629 17.5509 9.93506 17.3425 9.84169L11.5191 7.22673L7.23976 11.5204L9.8393 17.3317C9.93364 17.5407 9.91487 17.7827 9.79139 17.9769C8.1891 20.4866 7.03733 23.2587 6.36857 26.2155C6.31918 26.4378 6.15965 26.6211 5.94726 26.7021L0 28.9643V35.0361L5.94676 37.2973C6.15964 37.3783 6.31769 37.5606 6.36807 37.7839C7.03684 40.7249 8.1886 43.498 9.7924 46.0254C9.9149 46.2181 9.93317 46.4592 9.83883 46.6677L7.23929 52.48L11.5186 56.7736L17.342 54.1587C17.5509 54.0643 17.7939 54.0816 17.988 54.2051C20.4962 55.8078 23.2621 56.9598 26.2103 57.6303C26.431 57.6806 26.6133 57.8377 26.6943 58.0507L28.9724 63.9993Z" fill="#2D2062"/>
<circle cx="31.98" cy="32.3748" r="18.5563" fill="#BBD02D"/>
<path fill-rule="evenodd" clip-rule="evenodd" d="M31.98 37.7048C28.0384 37.7048 24.6772 35.2288 23.3791 31.7532C23.0358 30.834 22.0124 30.3672 21.0932 30.7105C20.1739 31.0538 19.7071 32.0773 20.0504 32.9965C21.8525 37.8215 26.5136 41.2582 31.98 41.2582C37.4463 41.2582 42.1074 37.8215 43.9095 32.9965C44.2528 32.0773 43.786 31.0538 42.8668 30.7105C41.9476 30.3672 40.9241 30.834 40.5808 31.7532C39.2827 35.2288 35.9215 37.7048 31.98 37.7048Z" fill="#2D2062"/>
</svg>
